<svg width="100%" viewBox="0 0 680 160" role="img" xmlns="http://www.w3.org/2000/svg">
<title>ARYA MGC</title>
<style>
  .px { fill: #6bb8f0; stroke: #2a6fa8; stroke-width: 1; }
  .bg { fill: #0d1117; }
</style>
<rect width="680" height="160" class="bg" rx="6"/>

<!-- A -->
<rect x="30" y="20" width="14" height="14" class="px"/>
<rect x="30" y="34" width="14" height="14" class="px"/>
<rect x="30" y="48" width="14" height="14" class="px"/>
<rect x="30" y="62" width="14" height="14" class="px"/>
<rect x="30" y="76" width="14" height="14" class="px"/>
<rect x="30" y="90" width="14" height="14" class="px"/>
<rect x="30" y="104" width="14" height="14" class="px"/>
<rect x="30" y="118" width="14" height="14" class="px"/>
<rect x="44" y="20" width="14" height="14" class="px"/>
<rect x="58" y="20" width="14" height="14" class="px"/>
<rect x="72" y="20" width="14" height="14" class="px"/>
<rect x="44" y="76" width="14" height="14" class="px"/>
<rect x="58" y="76" width="14" height="14" class="px"/>
<rect x="72" y="76" width="14" height="14" class="px"/>
<rect x="86" y="20" width="14" height="14" class="px"/>
<rect x="86" y="34" width="14" height="14" class="px"/>
<rect x="86" y="48" width="14" height="14" class="px"/>
<rect x="86" y="62" width="14" height="14" class="px"/>
<rect x="86" y="76" width="14" height="14" class="px"/>
<rect x="86" y="90" width="14" height="14" class="px"/>
<rect x="86" y="104" width="14" height="14" class="px"/>
<rect x="86" y="118" width="14" height="14" class="px"/>

<!-- R -->
<rect x="110" y="20" width="14" height="14" class="px"/>
<rect x="110" y="34" width="14" height="14" class="px"/>
<rect x="110" y="48" width="14" height="14" class="px"/>
<rect x="110" y="62" width="14" height="14" class="px"/>
<rect x="110" y="76" width="14" height="14" class="px"/>
<rect x="110" y="90" width="14" height="14" class="px"/>
<rect x="110" y="104" width="14" height="14" class="px"/>
<rect x="110" y="118" width="14" height="14" class="px"/>
<rect x="124" y="20" width="14" height="14" class="px"/>
<rect x="138" y="20" width="14" height="14" class="px"/>
<rect x="152" y="20" width="14" height="14" class="px"/>
<rect x="124" y="76" width="14" height="14" class="px"/>
<rect x="138" y="76" width="14" height="14" class="px"/>
<rect x="166" y="34" width="14" height="14" class="px"/>
<rect x="166" y="48" width="14" height="14" class="px"/>
<rect x="166" y="62" width="14" height="14" class="px"/>
<rect x="152" y="90" width="14" height="14" class="px"/>
<rect x="166" y="104" width="14" height="14" class="px"/>
<rect x="166" y="118" width="14" height="14" class="px"/>

<!-- Y -->
<rect x="190" y="20" width="14" height="14" class="px"/>
<rect x="190" y="34" width="14" height="14" class="px"/>
<rect x="190" y="48" width="14" height="14" class="px"/>
<rect x="246" y="20" width="14" height="14" class="px"/>
<rect x="246" y="34" width="14" height="14" class="px"/>
<rect x="246" y="48" width="14" height="14" class="px"/>
<rect x="204" y="62" width="14" height="14" class="px"/>
<rect x="218" y="62" width="14" height="14" class="px"/>
<rect x="232" y="62" width="14" height="14" class="px"/>
<rect x="218" y="76" width="14" height="14" class="px"/>
<rect x="218" y="90" width="14" height="14" class="px"/>
<rect x="218" y="104" width="14" height="14" class="px"/>
<rect x="218" y="118" width="14" height="14" class="px"/>

<!-- A -->
<rect x="270" y="20" width="14" height="14" class="px"/>
<rect x="270" y="34" width="14" height="14" class="px"/>
<rect x="270" y="48" width="14" height="14" class="px"/>
<rect x="270" y="62" width="14" height="14" class="px"/>
<rect x="270" y="76" width="14" height="14" class="px"/>
<rect x="270" y="90" width="14" height="14" class="px"/>
<rect x="270" y="104" width="14" height="14" class="px"/>
<rect x="270" y="118" width="14" height="14" class="px"/>
<rect x="284" y="20" width="14" height="14" class="px"/>
<rect x="298" y="20" width="14" height="14" class="px"/>
<rect x="312" y="20" width="14" height="14" class="px"/>
<rect x="284" y="76" width="14" height="14" class="px"/>
<rect x="298" y="76" width="14" height="14" class="px"/>
<rect x="312" y="76" width="14" height="14" class="px"/>
<rect x="326" y="20" width="14" height="14" class="px"/>
<rect x="326" y="34" width="14" height="14" class="px"/>
<rect x="326" y="48" width="14" height="14" class="px"/>
<rect x="326" y="62" width="14" height="14" class="px"/>
<rect x="326" y="76" width="14" height="14" class="px"/>
<rect x="326" y="90" width="14" height="14" class="px"/>
<rect x="326" y="104" width="14" height="14" class="px"/>
<rect x="326" y="118" width="14" height="14" class="px"/>

<!-- M -->
<rect x="370" y="20" width="14" height="14" class="px"/>
<rect x="370" y="34" width="14" height="14" class="px"/>
<rect x="370" y="48" width="14" height="14" class="px"/>
<rect x="370" y="62" width="14" height="14" class="px"/>
<rect x="370" y="76" width="14" height="14" class="px"/>
<rect x="370" y="90" width="14" height="14" class="px"/>
<rect x="370" y="104" width="14" height="14" class="px"/>
<rect x="370" y="118" width="14" height="14" class="px"/>
<rect x="384" y="34" width="14" height="14" class="px"/>
<rect x="398" y="20" width="14" height="14" class="px"/>
<rect x="412" y="20" width="14" height="14" class="px"/>
<rect x="426" y="34" width="14" height="14" class="px"/>
<rect x="398" y="48" width="14" height="14" class="px"/>
<rect x="412" y="48" width="14" height="14" class="px"/>
<rect x="440" y="20" width="14" height="14" class="px"/>
<rect x="440" y="34" width="14" height="14" class="px"/>
<rect x="440" y="48" width="14" height="14" class="px"/>
<rect x="440" y="62" width="14" height="14" class="px"/>
<rect x="440" y="76" width="14" height="14" class="px"/>
<rect x="440" y="90" width="14" height="14" class="px"/>
<rect x="440" y="104" width="14" height="14" class="px"/>
<rect x="440" y="118" width="14" height="14" class="px"/>
<rect x="384" y="62" width="14" height="14" class="px"/>
<rect x="426" y="62" width="14" height="14" class="px"/>
<rect x="384" y="76" width="14" height="14" class="px"/>
<rect x="426" y="76" width="14" height="14" class="px"/>
<rect x="384" y="90" width="14" height="14" class="px"/>
<rect x="426" y="90" width="14" height="14" class="px"/>
<rect x="384" y="104" width="14" height="14" class="px"/>
<rect x="426" y="104" width="14" height="14" class="px"/>
<rect x="384" y="118" width="14" height="14" class="px"/>
<rect x="426" y="118" width="14" height="14" class="px"/>

<!-- G -->
<rect x="464" y="20" width="14" height="14" class="px"/>
<rect x="478" y="20" width="14" height="14" class="px"/>
<rect x="492" y="20" width="14" height="14" class="px"/>
<rect x="506" y="20" width="14" height="14" class="px"/>
<rect x="464" y="34" width="14" height="14" class="px"/>
<rect x="464" y="48" width="14" height="14" class="px"/>
<rect x="464" y="62" width="14" height="14" class="px"/>
<rect x="464" y="76" width="14" height="14" class="px"/>
<rect x="492" y="76" width="14" height="14" class="px"/>
<rect x="506" y="76" width="14" height="14" class="px"/>
<rect x="506" y="62" width="14" height="14" class="px"/>
<rect x="464" y="90" width="14" height="14" class="px"/>
<rect x="464" y="104" width="14" height="14" class="px"/>
<rect x="464" y="118" width="14" height="14" class="px"/>
<rect x="478" y="118" width="14" height="14" class="px"/>
<rect x="492" y="118" width="14" height="14" class="px"/>
<rect x="506" y="104" width="14" height="14" class="px"/>
<rect x="506" y="118" width="14" height="14" class="px"/>

<!-- C -->
<rect x="530" y="20" width="14" height="14" class="px"/>
<rect x="544" y="20" width="14" height="14" class="px"/>
<rect x="558" y="20" width="14" height="14" class="px"/>
<rect x="572" y="20" width="14" height="14" class="px"/>
<rect x="530" y="34" width="14" height="14" class="px"/>
<rect x="530" y="48" width="14" height="14" class="px"/>
<rect x="530" y="62" width="14" height="14" class="px"/>
<rect x="530" y="76" width="14" height="14" class="px"/>
<rect x="530" y="90" width="14" height="14" class="px"/>
<rect x="530" y="104" width="14" height="14" class="px"/>
<rect x="530" y="118" width="14" height="14" class="px"/>
<rect x="544" y="118" width="14" height="14" class="px"/>
<rect x="558" y="118" width="14" height="14" class="px"/>
<rect x="572" y="118" width="14" height="14" class="px"/>
</svg>
